<svg width="1920" height="557" viewBox="0 0 1920 557" fill="none" xmlns="http://www.w3.org/2000/svg">
<path d="M-70.5708 360.163C-88.9716 305.139 -62.6239 141.786 206.554 142.431C546.628 143.247 720.059 287.741 1021.52 162.1C1326.41 35.0287 1430.19 180.934 1575.43 111.029C1691.62 55.1049 1901.84 132.712 1992.43 178.506L1951.52 338.75C1918.5 300.679 1818.31 210.846 1690.96 233.986C1479 272.5 1244.5 259.292 1106 289.711C886.525 337.914 890.06 468.33 632.785 326.449C375.51 184.568 424.802 273.044 214.468 289.711C178.539 292.558 -57.3443 339.346 -79.9037 380.609C-80.2593 381.404 -80.6158 382.203 -80.9733 383.006C-102.15 444.533 -48.6711 509.685 -113.828 551.226C-161.182 581.417 -116.623 463.06 -80.9733 383.006C-80.6991 382.209 -80.3416 381.41 -79.9037 380.609C-76.686 373.416 -73.5499 366.554 -70.5708 360.163Z" fill="#F6CE40"/>
</svg>
